<?xml version="1.0" encoding="UTF-8" standalone="no"?>
<!-- Generator: IcoMoon.io -->

<svg
   xmlns:dc="http://purl.org/dc/elements/1.1/"
   xmlns:cc="http://creativecommons.org/ns#"
   xmlns:rdf="http://www.w3.org/1999/02/22-rdf-syntax-ns#"
   xmlns:svg="http://www.w3.org/2000/svg"
   xmlns="http://www.w3.org/2000/svg"
   xmlns:sodipodi="http://sodipodi.sourceforge.net/DTD/sodipodi-0.dtd"
   xmlns:inkscape="http://www.inkscape.org/namespaces/inkscape"
   width="25"
   height="25"
   viewBox="0 0 25 25"
   id="svg2"
   version="1.1"
   inkscape:version="0.48.4 r9939"
   sodipodi:docname="nodetection.svg"
   style="fill:#000000">
  <metadata
     id="metadata73">
    <rdf:RDF>
      <cc:Work
         rdf:about="">
        <dc:format>image/svg+xml</dc:format>
        <dc:type
           rdf:resource="http://purl.org/dc/dcmitype/StillImage" />
      </cc:Work>
    </rdf:RDF>
  </metadata>
  <defs
     id="defs71" />
  <sodipodi:namedview
     pagecolor="#ffffff"
     bordercolor="#666666"
     borderopacity="1"
     objecttolerance="10"
     gridtolerance="10"
     guidetolerance="10"
     inkscape:pageopacity="0"
     inkscape:pageshadow="2"
     inkscape:window-width="640"
     inkscape:window-height="480"
     id="namedview69"
     showgrid="false"
     inkscape:zoom="2.6074563"
     inkscape:cx="46.878646"
     inkscape:cy="22.19213"
     inkscape:window-x="921"
     inkscape:window-y="210"
     inkscape:window-maximized="0"
     inkscape:current-layer="svg2" />
  <g
     transform="matrix(0.31333426,0,0,0.31842067,-50.586109,-35.035599)"
     id="ADMIN">
    <g
       style="display:none"
       id="ADMIN_-_Icône_Point_de_passage_Interface"
       display="none">
      <polygon
         style="fill:#ef7f16;display:inline"
         display="inline"
         points="237.4,185.5 216.7,180 196,174.4 211.2,159.3 226.3,144.1 231.8,164.8 "
         id="polygon7" />
      <g
         style="display:inline"
         display="inline"
         id="g9">
        <path
           style="fill:#282828"
           inkscape:connector-curvature="0"
           d="m 200.8,178.8 c -16.5,0 -29.9,-13.4 -29.9,-29.9 0,-16.5 13.4,-29.9 29.9,-29.9 16.5,0 29.9,13.4 29.9,29.9 0,16.5 -13.4,29.9 -29.9,29.9 z"
           id="path11" />
        <path
           style="fill:#ef7f16"
           inkscape:connector-curvature="0"
           d="m 200.8,122.5 c 14.6,0 26.4,11.8 26.4,26.4 0,14.6 -11.8,26.4 -26.4,26.4 -14.6,0 -26.4,-11.8 -26.4,-26.4 0,-14.6 11.8,-26.4 26.4,-26.4 m 0,-7 c -18.4,0 -33.4,14.9 -33.4,33.4 0,18.5 14.9,33.4 33.4,33.4 18.4,0 33.4,-14.9 33.4,-33.4 0,-18.5 -15,-33.4 -33.4,-33.4 l 0,0 z"
           id="path13" />
      </g>
      <g
         style="display:inline"
         display="inline"
         id="g15">
        <path
           style="fill:#ffffff"
           inkscape:connector-curvature="0"
           d="m 193.3,135.4 h 5.7 c 3.1,0 5.3,0.3 6.7,0.9 1.4,0.6 2.4,1.5 3.2,2.8 0.8,1.3 1.2,2.8 1.2,4.6 0,2 -0.5,3.6 -1.5,4.9 -1,1.3 -2.4,2.2 -4.2,2.7 -1,0.3 -2.9,0.4 -5.7,0.4 v 12 h -5.4 v -28.3 z m 5.3,11.1 h 1.7 c 1.3,0 2.3,-0.1 2.8,-0.3 0.5,-0.2 0.9,-0.5 1.2,-1 0.3,-0.4 0.5,-1 0.5,-1.6 0,-1.1 -0.4,-1.9 -1.3,-2.4 -0.6,-0.4 -1.8,-0.6 -3.4,-0.6 h -1.5 v 5.9 z"
           id="path17" />
      </g>
    </g>
    <g
       style="display:none"
       id="ADMIN_-_Point_de_passage_Normal"
       display="none">
      <polygon
         style="fill:#ef7f16;display:inline"
         display="inline"
         points="237.4,185.5 216.7,180 196,174.4 211.2,159.3 226.3,144.1 231.8,164.8 "
         id="polygon20" />
      <g
         style="display:inline"
         display="inline"
         id="g22">
        <path
           style="fill:#282828"
           inkscape:connector-curvature="0"
           d="m 200.8,178.8 c -16.5,0 -29.9,-13.4 -29.9,-29.9 0,-16.5 13.4,-29.9 29.9,-29.9 16.5,0 29.9,13.4 29.9,29.9 0,16.5 -13.4,29.9 -29.9,29.9 z"
           id="path24" />
        <path
           style="fill:#ef7f16"
           inkscape:connector-curvature="0"
           d="m 200.8,122.5 c 14.6,0 26.4,11.8 26.4,26.4 0,14.6 -11.8,26.4 -26.4,26.4 -14.6,0 -26.4,-11.8 -26.4,-26.4 0,-14.6 11.8,-26.4 26.4,-26.4 m 0,-7 c -18.4,0 -33.4,14.9 -33.4,33.4 0,18.5 14.9,33.4 33.4,33.4 18.4,0 33.4,-14.9 33.4,-33.4 0,-18.5 -15,-33.4 -33.4,-33.4 l 0,0 z"
           id="path26" />
      </g>
      <g
         style="display:inline"
         display="inline"
         id="g28">
        <path
           style="fill:#ffffff"
           inkscape:connector-curvature="0"
           d="m 197.8,142.9 h -4.9 c 0.3,-2 1,-3.6 2.1,-4.8 1.6,-1.7 3.7,-2.5 6.1,-2.5 2.2,0 4,0.7 5.5,2.1 1.5,1.4 2.2,3 2.2,5 0,1.2 -0.3,2.3 -1,3.3 -0.6,1 -1.6,1.8 -2.8,2.4 1.6,0.5 2.9,1.3 3.8,2.5 0.9,1.2 1.4,2.6 1.4,4.3 0,2.4 -0.9,4.4 -2.7,6.1 -1.8,1.7 -4,2.5 -6.8,2.5 -2.6,0 -4.7,-0.8 -6.3,-2.4 -1.6,-1.6 -2.5,-3.7 -2.7,-6.4 h 5 c 0.2,1.4 0.7,2.4 1.4,3.1 0.7,0.7 1.7,1 2.8,1 1.2,0 2.2,-0.4 3,-1.1 0.8,-0.8 1.2,-1.7 1.2,-2.8 0,-1.2 -0.5,-2.2 -1.6,-3.1 -1.1,-0.8 -2.6,-1.3 -4.6,-1.3 v -4.4 c 1.2,-0.1 2.1,-0.3 2.7,-0.6 0.6,-0.3 1.1,-0.7 1.4,-1.2 0.3,-0.5 0.5,-1 0.5,-1.6 0,-0.7 -0.3,-1.3 -0.8,-1.8 -0.5,-0.5 -1.2,-0.7 -2,-0.7 -0.7,0 -1.4,0.2 -2,0.7 -0.2,0.4 -0.6,1 -0.9,1.7 z"
           id="path30" />
      </g>
    </g>
    <g
       style="display:none"
       id="ADMIN_-_Point_de_passage_Priorité_Haute"
       display="none">
      <polygon
         style="fill:#ef7f16;display:inline"
         display="inline"
         points="237.4,185.5 216.7,180 196,174.4 211.2,159.3 226.3,144.1 231.8,164.8 "
         id="polygon33" />
      <g
         style="display:inline"
         display="inline"
         id="g35">
        <path
           style="fill:#f07f14"
           inkscape:connector-curvature="0"
           d="m 200.8,178.8 c -16.5,0 -29.9,-13.4 -29.9,-29.9 0,-16.5 13.4,-29.9 29.9,-29.9 16.5,0 29.9,13.4 29.9,29.9 0,16.5 -13.4,29.9 -29.9,29.9 z"
           id="path37" />
        <path
           style="fill:#f07f14"
           inkscape:connector-curvature="0"
           d="m 200.8,122.5 c 14.6,0 26.4,11.8 26.4,26.4 0,14.6 -11.8,26.4 -26.4,26.4 -14.6,0 -26.4,-11.8 -26.4,-26.4 0,-14.6 11.8,-26.4 26.4,-26.4 m 0,-7 c -18.4,0 -33.4,14.9 -33.4,33.4 0,18.5 14.9,33.4 33.4,33.4 18.4,0 33.4,-14.9 33.4,-33.4 0,-18.5 -15,-33.4 -33.4,-33.4 l 0,0 z"
           id="path39" />
      </g>
      <g
         style="display:inline"
         display="inline"
         id="g41">
        <path
           style="fill:#ffffff"
           inkscape:connector-curvature="0"
           d="m 197.8,142.9 h -4.9 c 0.3,-2 1,-3.6 2.1,-4.8 1.6,-1.7 3.7,-2.5 6.1,-2.5 2.2,0 4,0.7 5.5,2.1 1.5,1.4 2.2,3 2.2,5 0,1.2 -0.3,2.3 -1,3.3 -0.6,1 -1.6,1.8 -2.8,2.4 1.6,0.5 2.9,1.3 3.8,2.5 0.9,1.2 1.4,2.6 1.4,4.3 0,2.4 -0.9,4.4 -2.7,6.1 -1.8,1.7 -4,2.5 -6.8,2.5 -2.6,0 -4.7,-0.8 -6.3,-2.4 -1.6,-1.6 -2.5,-3.7 -2.7,-6.4 h 5 c 0.2,1.4 0.7,2.4 1.4,3.1 0.7,0.7 1.7,1 2.8,1 1.2,0 2.2,-0.4 3,-1.1 0.8,-0.8 1.2,-1.7 1.2,-2.8 0,-1.2 -0.5,-2.2 -1.6,-3.1 -1.1,-0.8 -2.6,-1.3 -4.6,-1.3 v -4.4 c 1.2,-0.1 2.1,-0.3 2.7,-0.6 0.6,-0.3 1.1,-0.7 1.4,-1.2 0.3,-0.5 0.5,-1 0.5,-1.6 0,-0.7 -0.3,-1.3 -0.8,-1.8 -0.5,-0.5 -1.2,-0.7 -2,-0.7 -0.7,0 -1.4,0.2 -2,0.7 -0.2,0.4 -0.6,1 -0.9,1.7 z"
           id="path43" />
      </g>
    </g>
    <g
       style="display:none"
       id="ADMIN_-_Point_de_passage_-_Incorrect"
       display="none">
      <polygon
         style="fill:#ff0000;display:inline"
         display="inline"
         points="237.4,185.5 216.7,180 196,174.4 211.2,159.3 226.3,144.1 231.8,164.8 "
         id="polygon46" />
      <g
         style="display:inline"
         display="inline"
         id="g48">
        <path
           style="fill:#ff0000"
           inkscape:connector-curvature="0"
           d="m 200.8,178.8 c -16.5,0 -29.9,-13.4 -29.9,-29.9 0,-16.5 13.4,-29.9 29.9,-29.9 16.5,0 29.9,13.4 29.9,29.9 0,16.5 -13.4,29.9 -29.9,29.9 z"
           id="path50" />
        <path
           style="fill:#ff0000"
           inkscape:connector-curvature="0"
           d="m 200.8,122.5 c 14.6,0 26.4,11.8 26.4,26.4 0,14.6 -11.8,26.4 -26.4,26.4 -14.6,0 -26.4,-11.8 -26.4,-26.4 0,-14.6 11.8,-26.4 26.4,-26.4 m 0,-7 c -18.4,0 -33.4,14.9 -33.4,33.4 0,18.5 14.9,33.4 33.4,33.4 18.4,0 33.4,-14.9 33.4,-33.4 0,-18.5 -15,-33.4 -33.4,-33.4 l 0,0 z"
           id="path52" />
      </g>
      <g
         style="display:inline"
         display="inline"
         id="g54">
        <path
           style="fill:#ffffff"
           inkscape:connector-curvature="0"
           d="m 197.8,142.9 h -4.9 c 0.3,-2 1,-3.6 2.1,-4.8 1.6,-1.7 3.7,-2.5 6.1,-2.5 2.2,0 4,0.7 5.5,2.1 1.5,1.4 2.2,3 2.2,5 0,1.2 -0.3,2.3 -1,3.3 -0.6,1 -1.6,1.8 -2.8,2.4 1.6,0.5 2.9,1.3 3.8,2.5 0.9,1.2 1.4,2.6 1.4,4.3 0,2.4 -0.9,4.4 -2.7,6.1 -1.8,1.7 -4,2.5 -6.8,2.5 -2.6,0 -4.7,-0.8 -6.3,-2.4 -1.6,-1.6 -2.5,-3.7 -2.7,-6.4 h 5 c 0.2,1.4 0.7,2.4 1.4,3.1 0.7,0.7 1.7,1 2.8,1 1.2,0 2.2,-0.4 3,-1.1 0.8,-0.8 1.2,-1.7 1.2,-2.8 0,-1.2 -0.5,-2.2 -1.6,-3.1 -1.1,-0.8 -2.6,-1.3 -4.6,-1.3 v -4.4 c 1.2,-0.1 2.1,-0.3 2.7,-0.6 0.6,-0.3 1.1,-0.7 1.4,-1.2 0.3,-0.5 0.5,-1 0.5,-1.6 0,-0.7 -0.3,-1.3 -0.8,-1.8 -0.5,-0.5 -1.2,-0.7 -2,-0.7 -0.7,0 -1.4,0.2 -2,0.7 -0.2,0.4 -0.6,1 -0.9,1.7 z"
           id="path56" />
      </g>
    </g>
    <g
       style="display:none"
       id="ADMIN_-_Capteur_Porte"
       display="none">
      <polyline
         style="fill:#f07f14;display:inline"
         display="inline"
         points="180.3,186.9 180.3,123.5 219.7,123.5 219.7,186.9   "
         id="polyline59" />
      <polyline
         style="fill:none;stroke:#262626;stroke-width:4;stroke-linejoin:round;stroke-miterlimit:10;display:inline"
         display="inline"
         stroke-miterlimit="10"
         points="    180.3,186.9 180.3,123.5 219.7,123.5 219.7,186.9   "
         id="polyline61" />
      <circle
         d="m 215.3,156.5 c 0,1.38071 -1.11929,2.5 -2.5,2.5 -1.38071,0 -2.5,-1.11929 -2.5,-2.5 0,-1.38071 1.11929,-2.5 2.5,-2.5 1.38071,0 2.5,1.11929 2.5,2.5 z"
         style="fill:#262626;display:inline"
         sodipodi:ry="2.5"
         sodipodi:rx="2.5"
         sodipodi:cy="156.5"
         sodipodi:cx="212.8"
         display="inline"
         cx="212.8"
         cy="156.5"
         r="2.5"
         id="circle63" />
      <line
         style="fill:none;stroke:#262626;stroke-linejoin:round;stroke-miterlimit:10;display:inline"
         display="inline"
         stroke-miterlimit="10"
         x1="230"
         y1="186.5"
         x2="170"
         y2="186.5"
         id="line65" />
    </g>
    <g
       style="display:none"
       id="ADMIN_-_Capteur_Base"
       display="none">
      <g
         style="display:inline"
         display="inline"
         id="g68">
        <g
           id="g70">
          <polygon
             style="fill:#f07f15;stroke:#262626;stroke-width:3;stroke-linecap:round;stroke-linejoin:round;stroke-miterlimit:10"
             stroke-miterlimit="10"
             points="230.5,169.5 230.5,162.3 230.5,136.8 230.5,130.5 153.5,130.5 153.5,169.5 "
             id="polygon72" />
          <rect
             style="fill:#f07f15;stroke:#262626;stroke-width:3;stroke-linecap:round;stroke-linejoin:round;stroke-miterlimit:10"
             x="230.5"
             y="137.5"
             stroke-miterlimit="10"
             width="15"
             height="25"
             id="rect74" />
        </g>
      </g>
      <g
         style="display:inline"
         display="inline"
         id="g76">
        <polygon
           style="opacity:0.8;fill:#262626"
           points="170.2,166.7 185.3,166.7 172.3,133.3 157.2,133.3 "
           id="polygon78" />
        <polygon
           style="fill:#262626"
           points="157.2,166.7 170.2,166.7 157.2,133.3 "
           id="polygon80" />
        <polygon
           style="opacity:0.6;fill:#262626"
           points="185.3,166.7 200.4,166.7 187.4,133.3 172.3,133.3 "
           id="polygon82" />
        <polygon
           style="opacity:0.2;fill:#262626"
           points="227.1,157.7 217.6,133.3 202.5,133.3 215.6,166.7 227.1,166.7 "
           id="polygon84" />
        <polygon
           style="opacity:0.4;fill:#262626"
           points="200.4,166.7 215.6,166.7 202.5,133.3 187.4,133.3 "
           id="polygon86" />
        <polygon
           style="opacity:0;fill:#262626"
           points="227.1,133.3 217.6,133.3 227.1,157.7 "
           id="polygon88" />
      </g>
    </g>
    <g
       style="display:none"
       id="ADMIN_-_Icône_e-vigilante"
       display="none">
      <g
         style="display:inline"
         id="Roues"
         display="inline">
        <g
           id="Roue_Gauche">
          <path
             style="fill:#262626;stroke:#ffffff;stroke-width:2;stroke-miterlimit:10"
             inkscape:connector-curvature="0"
             stroke-miterlimit="10"
             d="m 251.2,108.5 c 0,-2.7 0,-3 0,-4 0,-3.6 -7.3,-5.8 -14.5,-6.1 -15.1,-0.7 -21.7,0.8 -24,1.3 -2.3,0.5 -6.2,2.2 -6.2,5.1 0,2.9 0,2.6 0,3.4 0,0.7 0.1,1.8 1.2,2.8 1.4,-0.1 15.6,-0.8 23.9,-0.2 6,0.4 8.5,1.9 9.4,2.8 3.3,-0.2 10.2,-1.3 10.2,-5.1 z"
             id="path93" />
          <path
             style="fill:#262626;stroke:#ffffff;stroke-width:2;stroke-miterlimit:10"
             inkscape:connector-curvature="0"
             stroke-miterlimit="10"
             d="m 231.6,110.8 c 5.5,0.4 8.1,1.7 9.2,2.6 2.3,-0.2 6.8,-0.7 6.8,-1.8 0,-1.4 -6.3,-2.3 -18.5,-2.3 -9.9,0 -14.7,0.8 -15.7,1.4 5.2,-0.1 12.8,-0.3 18.2,0.1 z"
             id="path95" />
        </g>
        <g
           id="Roue_Droite">
          <path
             style="fill:#262626;stroke:#ffffff;stroke-width:2;stroke-miterlimit:10"
             inkscape:connector-curvature="0"
             stroke-miterlimit="10"
             d="m 241,186.2 c -1.1,1.1 -4,2.9 -11,3.3 -10,0.5 -21.9,-0.4 -22.3,-0.4 0,0 0,0 0,0 -0.3,0.3 -1.2,1 -1.2,2.5 0,1.9 0,2.8 0,3.8 0,1 0.6,2.4 2.4,3.5 2.6,1.6 8.7,3.1 21.4,3.1 12.7,0 21.1,-2 21.1,-6.5 0,-1.7 0,-2.5 0,-3.4 0,-1.1 -0.8,-5.4 -10.4,-5.9 z"
             id="path98" />
          <path
             style="fill:#262626;stroke:#ffffff;stroke-width:2;stroke-miterlimit:10"
             inkscape:connector-curvature="0"
             stroke-miterlimit="10"
             d="m 214.2,189.4 c 1.4,0.5 6.7,1.3 14.3,1.3 10.1,0 18.2,-0.8 18.8,-2.1 0.6,-1.4 -4.1,-1.9 -6.6,-2.1"
             id="path100" />
        </g>
      </g>
      <path
         style="fill:#262626;stroke:#ffffff;stroke-miterlimit:10;display:inline"
         inkscape:connector-curvature="0"
         display="inline"
         stroke-miterlimit="10"
         d="m 250.7,149.8 c 0,0 -0.1,-7.1 -0.2,-8.2 -1.4,-4.6 -5.1,-15.1 -5.1,-15.1 -6.1,-9.5 -33,-4 -33.4,-3.9 -0.4,0.1 -1.1,0.3 -1.1,0.3 0,0 -19.6,9.4 -20.7,9.8 -1,0.4 -1.2,1.4 -1.2,1.4 0,0 -2.2,10.1 -2.2,15.5 0,5.4 2,15.1 2.1,16.2 0.2,1.1 1,1.5 1,1.5 0,0 20.5,9.7 20.7,9.9 0.2,0.1 1.2,0.4 1.2,0.4 0,0 12.2,2.1 19.4,1.6 12.2,-0.8 14.2,-5.6 14.2,-5.6 l 5.1,-14.7 c 0.1,-0.4 0.1,-0.8 0.1,-1.1 0.1,-1.2 0.1,-8 0.1,-8 z"
         id="path102" />
      <path
         style="fill:#262626;stroke:#ffffff;stroke-width:2;stroke-miterlimit:10;display:inline"
         inkscape:connector-curvature="0"
         display="inline"
         stroke-miterlimit="10"
         d="m 245.5,173.5 c 0,0 -1.9,4.8 -14.2,5.6 -7.2,0.4 -19.4,-1.6 -19.4,-1.6 0,0 -0.9,-0.2 -1.2,-0.4 -0.2,-0.1 -20.7,-9.9 -20.7,-9.9 0,0 -0.8,-0.4 -1,-1.5 -0.2,-1.1 -2.1,-10.7 -2.1,-16.2 0,-5.5 2.1,-15.5 2.1,-15.5 0,0 0.1,-1 1.2,-1.4 1,-0.4 20.7,-9.8 20.7,-9.8 0,0 0.7,-0.2 1.1,-0.3 0.4,-0.1 27.4,-5.6 33.4,3.9 0,0 3.8,10.5 5.1,15.1 0,-0.1 0,-0.1 0,-0.1 0,-0.1 -0.1,-0.4 -0.1,-0.6 0,-0.1 -6.3,-20.1 -8.8,-26.5 0,0 0,0 0,-0.1 -1.4,-1 -5.9,-3.3 -17.8,-3 -15.4,0.4 -16.4,0.5 -16.4,0.5 0,0 -0.2,0.1 -0.4,0.2 l -31.5,19.2 c 0,0 -0.9,0.4 -1.4,0.6 -0.5,0.1 -21.5,4.9 -21.5,4.9 0,0 -3,0.6 -3,3.5 0,2.9 0,20.2 0,20.2 0,0 0.1,2.4 2.8,3 2.7,0.6 21.7,5 21.7,5 0,0 0.8,0.2 1.5,0.6 0.7,0.4 31,18.9 31,18.9 0,0 0.5,0.3 0.8,0.3 0.4,0 14.9,0.6 17.9,0.6 2.9,0 13.4,-0.2 16.3,-3.4 l 8.6,-25.1 c 0,0 0.2,-0.7 0.3,-1.4 l -5,14.7 z"
         id="path104" />
      <g
         style="display:inline"
         id="Chapeau_Laser"
         display="inline">
        <path
           style="fill:#262626;stroke:#ffffff;stroke-width:2;stroke-miterlimit:10"
           inkscape:connector-curvature="0"
           stroke-miterlimit="10"
           d="m 243.2,150.1 c 0,-1 0,-10.8 -11.9,-10.8 -9.6,0 -18.1,5.3 -19.1,6 -0.6,0.4 -3,2.2 -3,4.7 0,2.7 2.9,4.7 4.3,5.5 2.7,1.4 11.4,5.3 17.9,5.3 7.8,0 11.8,-5.9 11.8,-10.7 z"
           id="path107" />
        <path
           style="fill:#262626;stroke:#ffffff;stroke-width:2;stroke-miterlimit:10"
           inkscape:connector-curvature="0"
           stroke-miterlimit="10"
           d="m 238.9,150 c 0,-3.2 -1.5,-9.3 -8.8,-9.3 -5,0 -14.2,2.5 -14.2,9.4 0.1,6.9 8.6,8.9 13.5,9.3 5,0.5 9.5,-3 9.5,-9.4 z"
           id="path109" />
      </g>
    </g>
    <g
       style="display:none"
       id="ADMIN_-_Icône_Compte"
       display="none">
      <g
         style="display:inline"
         display="inline"
         id="g112">
        <path
           style="fill:#262626;stroke:#ffffff;stroke-width:4;stroke-miterlimit:10"
           inkscape:connector-curvature="0"
           stroke-miterlimit="10"
           d="m 154,188.5 v -20.3 c 0,-9.5 7.8,-17.3 17.3,-17.3 h 9.5 c 9.5,0 17.3,7.8 17.3,17.3 v 20.3 H 154 z"
           id="path114" />
        <circle
           d="m 197.2,140.5 c 0,11.70844 -9.49156,21.2 -21.2,21.2 -11.70844,0 -21.2,-9.49156 -21.2,-21.2 0,-11.70844 9.49156,-21.2 21.2,-21.2 11.70844,0 21.2,9.49156 21.2,21.2 z"
           style="fill:#262626;stroke:#ffffff;stroke-width:4;stroke-miterlimit:10"
           sodipodi:ry="21.200001"
           sodipodi:rx="21.200001"
           sodipodi:cy="140.5"
           sodipodi:cx="176"
           stroke-miterlimit="10"
           cx="176"
           cy="140.5"
           r="21.200001"
           id="circle116" />
        <path
           style="fill:#262626;stroke:#ffffff;stroke-width:4;stroke-miterlimit:10"
           inkscape:connector-curvature="0"
           stroke-miterlimit="10"
           d="m 201.9,188.5 v -20.3 c 0,-9.5 7.8,-17.3 17.3,-17.3 h 9.5 c 9.5,0 17.3,7.8 17.3,17.3 v 20.3 h -44.1 z"
           id="path118" />
        <circle
           d="m 245.2,140.5 c 0,11.70844 -9.49156,21.2 -21.2,21.2 -11.70844,0 -21.2,-9.49156 -21.2,-21.2 0,-11.70844 9.49156,-21.2 21.2,-21.2 11.70844,0 21.2,9.49156 21.2,21.2 z"
           style="fill:#262626;stroke:#ffffff;stroke-width:4;stroke-miterlimit:10"
           sodipodi:ry="21.200001"
           sodipodi:rx="21.200001"
           sodipodi:cy="140.5"
           sodipodi:cx="224"
           stroke-miterlimit="10"
           cx="224"
           cy="140.5"
           r="21.200001"
           id="circle120" />
        <path
           style="fill:#262626;stroke:#ffffff;stroke-width:4;stroke-miterlimit:10"
           inkscape:connector-curvature="0"
           stroke-miterlimit="10"
           d="m 175,188.5 v -23 c 0,-10.8 8.8,-19.6 19.6,-19.6 h 10.8 c 10.8,0 19.6,8.8 19.6,19.6 v 23 h -50 z"
           id="path122" />
        <circle
           d="m 224,134.10001 c 0,13.25483 -10.74517,24 -24,24 -13.25483,0 -24,-10.74517 -24,-24 0,-13.25484 10.74517,-24 24,-24 13.25483,0 24,10.74516 24,24 z"
           style="fill:#262626;stroke:#ffffff;stroke-width:4;stroke-miterlimit:10"
           sodipodi:ry="24"
           sodipodi:rx="24"
           sodipodi:cy="134.10001"
           sodipodi:cx="200"
           stroke-miterlimit="10"
           cx="200"
           cy="134.10001"
           r="24"
           id="circle124" />
      </g>
    </g>
    <g
       style="display:none"
       id="ADMIN_-_Icône_Réseau"
       display="none">
      <path
         style="fill:#ffffff;stroke:#282828;stroke-width:4;stroke-miterlimit:10;display:inline"
         inkscape:connector-curvature="0"
         display="inline"
         stroke-miterlimit="10"
         d="m 190.4,195.9 h 19.2 c 1.8,0 3.2,-1.4 3.2,-3.2 v -18.8 c 0,-1.8 -1.4,-3.2 -3.2,-3.2 h -19.2 c -1.8,0 -3.2,1.4 -3.2,3.2 v 18.8 c 0,1.8 1.4,3.2 3.2,3.2 z"
         id="path127" />
      <path
         style="fill:#ffffff;stroke:#282828;stroke-width:4;stroke-miterlimit:10;display:inline"
         inkscape:connector-curvature="0"
         display="inline"
         stroke-miterlimit="10"
         d="m 184,196.2 h 32 c 1.8,0 3.2,-1.4 3.2,-3.2 v 0 c 0,-1.8 -1.4,-3.2 -3.2,-3.2 h -32 c -1.8,0 -3.2,1.4 -3.2,3.2 v 0 c 0.1,1.7 1.5,3.2 3.2,3.2 z"
         id="path129" />
      <path
         style="fill:#ffffff;stroke:#282828;stroke-width:4;stroke-miterlimit:10;display:inline"
         inkscape:connector-curvature="0"
         display="inline"
         stroke-miterlimit="10"
         d="m 166.2,178.1 h 67.7 c 3.1,0 5.7,-2.5 5.7,-5.7 v -44.8 c 0,-3.1 -2.5,-5.7 -5.7,-5.7 h -67.7 c -3.1,0 -5.7,2.5 -5.7,5.7 v 44.8 c 0,3.1 2.5,5.7 5.7,5.7 z"
         id="path131" />
      <g
         style="display:inline"
         display="inline"
         id="g133">
        <path
           style="fill:#282828"
           inkscape:connector-curvature="0"
           d="m 158.6,194 c -0.6,0 -0.6,-0.7 -0.6,-1.3 V 164 h -8 c -3.9,0 -7,-3.5 -7,-7.3 v -36.6 c 0,-3.9 3.2,-7.1 7,-7.1 h 26.3 c 3.9,0 6.7,3.2 6.7,7.1 v 36.6 c 0,3.9 -2.8,7.3 -6.7,7.3 H 169 v 28.7 c 0,0.6 -0.7,1.3 -1.2,1.3 h -9.2 z"
           id="path135" />
        <path
           style="fill:#ffffff"
           inkscape:connector-curvature="0"
           d="m 176.3,114 c 3.3,0 5.7,2.7 5.7,6.1 v 36.6 c 0,3.3 -2.4,6.3 -5.7,6.3 H 168 v 30 h -9 v -30 h -9 c -3.3,0 -6,-3 -6,-6.3 v -36.6 c 0,-3.3 2.7,-6.1 6,-6.1 h 26 m 0.3,-2 H 150 c -4.4,0 -8,3.6 -8,8.1 v 36.6 c 0,4.4 3.6,8.3 8,8.3 h 7 v 27.7 c 0,1.1 0.5,2.3 1.6,2.3 h 9.2 c 1.1,0 2.2,-1.2 2.2,-2.3 V 165 h 6.3 c 4.4,0 7.7,-3.9 7.7,-8.3 v -36.6 c 0,-4.5 -3.3,-8.1 -7.7,-8.1 l 0,0 z"
           id="path137" />
      </g>
      <path
         style="fill:#282828;stroke:#ffffff;stroke-width:4;stroke-miterlimit:10;display:inline"
         inkscape:connector-curvature="0"
         display="inline"
         stroke-miterlimit="10"
         d="m 159.5,146 h 7.3 c 2.2,0 4,-1.8 4,-4 v -31.5 c 0,-2.2 -1.8,-4 -4,-4 h -7.3 c -2.2,0 -4,1.8 -4,4 V 142 c 0,2.2 1.8,4 4,4 z"
         id="path139" />
    </g>
    <g
       style="display:none"
       id="ADMIN_-_Flèche_Capteurs_Nomal"
       display="none">
      <circle
         d="m 210,156.2 c 0,5.52284 -4.47715,10 -10,10 -5.52285,0 -10,-4.47716 -10,-10 0,-5.52285 4.47715,-10 10,-10 5.52285,0 10,4.47715 10,10 z"
         style="fill:#282828;display:inline"
         sodipodi:ry="10"
         sodipodi:rx="10"
         sodipodi:cy="156.2"
         sodipodi:cx="200"
         display="inline"
         cx="200"
         cy="156.2"
         r="10"
         id="circle142" />
      <line
         style="fill:none;stroke:#282828;stroke-width:4;stroke-miterlimit:10;display:inline"
         display="inline"
         stroke-miterlimit="10"
         x1="200"
         y1="150"
         x2="200"
         y2="104"
         id="line144" />
      <polygon
         style="fill:#262626;stroke:#282828;stroke-width:3;stroke-linecap:round;stroke-linejoin:round;stroke-miterlimit:10;display:inline"
         display="inline"
         stroke-miterlimit="10"
         points="199.9,104.5 190.1,104.5 195,95.8 199.9,87.2 204.8,95.8 209.7,104.5 "
         id="polygon146" />
    </g>
    <g
       style="display:none"
       id="ADMIN_-_Flèche_Capteurs_Survol_1_"
       display="none">
      <circle
         d="m 210,156.2 c 0,5.52284 -4.47715,10 -10,10 -5.52285,0 -10,-4.47716 -10,-10 0,-5.52285 4.47715,-10 10,-10 5.52285,0 10,4.47715 10,10 z"
         style="fill:#f07f14;display:inline"
         sodipodi:ry="10"
         sodipodi:rx="10"
         sodipodi:cy="156.2"
         sodipodi:cx="200"
         display="inline"
         cx="200"
         cy="156.2"
         r="10"
         id="circle149" />
      <line
         style="fill:none;stroke:#f07f14;stroke-width:4;stroke-miterlimit:10;display:inline"
         display="inline"
         stroke-miterlimit="10"
         x1="200"
         y1="150"
         x2="200"
         y2="104"
         id="line151" />
      <polygon
         style="fill:#f07f14;stroke:#f07f14;stroke-width:3;stroke-linecap:round;stroke-linejoin:round;stroke-miterlimit:10;display:inline"
         display="inline"
         stroke-miterlimit="10"
         points="199.9,104.5 190.1,104.5 195,95.8 199.9,87.2 204.8,95.8 209.7,104.5 "
         id="polygon153" />
    </g>
    <g
       style="display:none"
       id="ADMIN_-_Icône_non_circulation"
       display="none">
      <g
         style="display:inline"
         display="inline"
         id="g156">
        <path
           style="fill:#ff0000"
           inkscape:connector-curvature="0"
           d="m 200,185.7 c -19.7,0 -35.7,-16 -35.7,-35.7 0,-19.7 16,-35.7 35.7,-35.7 19.7,0 35.7,16 35.7,35.7 0,19.7 -16,35.7 -35.7,35.7 z"
           id="path158" />
        <g
           id="g160">
          <path
             style="fill:#262626"
             inkscape:connector-curvature="0"
             d="m 200,116.3 c 18.6,0 33.7,15.1 33.7,33.7 0,18.6 -15.1,33.7 -33.7,33.7 -18.6,0 -33.7,-15.1 -33.7,-33.7 0,-18.6 15.1,-33.7 33.7,-33.7 m 0,-4 c -20.8,0 -37.7,16.9 -37.7,37.7 0,20.8 16.9,37.7 37.7,37.7 20.8,0 37.7,-16.9 37.7,-37.7 0,-20.8 -16.9,-37.7 -37.7,-37.7 l 0,0 z"
             id="path162" />
        </g>
      </g>
      <g
         style="display:inline"
         display="inline"
         id="g164">
        <circle
           d="m 233.7,150 c 0,18.612 -15.088,33.7 -33.7,33.7 -18.612,0 -33.7,-15.088 -33.7,-33.7 0,-18.612 15.088,-33.7 33.7,-33.7 18.612,0 33.7,15.088 33.7,33.7 z"
           style="fill:#ff0000"
           sodipodi:ry="33.700001"
           sodipodi:rx="33.700001"
           sodipodi:cy="150"
           sodipodi:cx="200"
           cx="200"
           cy="150"
           r="33.700001"
           id="circle166" />
      </g>
      <rect
         style="fill:#ffffff;display:inline"
         x="174"
         y="144"
         display="inline"
         width="52"
         height="12"
         id="rect168" />
    </g>
    <g
       id="ADMIN_-_Icône_non_détection">
      <g
         id="g171">
        <path
           style="fill:#ff0000"
           inkscape:connector-curvature="0"
           d="m 200,185.7 c -19.7,0 -35.7,-16 -35.7,-35.7 0,-19.7 16,-35.7 35.7,-35.7 19.7,0 35.7,16 35.7,35.7 0,19.7 -16,35.7 -35.7,35.7 z"
           id="path173" />
        <g
           id="g175">
          <path
             style="fill:#262626"
             inkscape:connector-curvature="0"
             d="m 200,116.3 c 18.6,0 33.7,15.1 33.7,33.7 0,18.6 -15.1,33.7 -33.7,33.7 -18.6,0 -33.7,-15.1 -33.7,-33.7 0,-18.6 15.1,-33.7 33.7,-33.7 m 0,-4 c -20.8,0 -37.7,16.9 -37.7,37.7 0,20.8 16.9,37.7 37.7,37.7 20.8,0 37.7,-16.9 37.7,-37.7 0,-20.8 -16.9,-37.7 -37.7,-37.7 l 0,0 z"
             id="path177" />
        </g>
      </g>
      <path
         style="fill:#ff0000;stroke:#262626;stroke-width:2;stroke-miterlimit:10"
         inkscape:connector-curvature="0"
         id="Icône_voleur_1_"
         stroke-miterlimit="10"
         d="m 210.4,132.1 c 2.5,-0.6 4,-3.2 3.4,-5.7 -0.6,-2.5 -3.2,-4 -5.7,-3.4 -2.5,0.6 -4,3.2 -3.4,5.7 0.6,2.6 3.1,4.1 5.7,3.4 z m 10.9,-2.4 c -0.6,0.1 -1.1,0.5 -1.4,0.9 l -4.4,7.3 -8.8,-5.3 c -0.7,-0.4 -1.5,-0.5 -2.3,-0.3 l -11.1,2.8 c -0.7,0.2 -1.3,0.7 -1.6,1.3 l -5.4,10.7 c -0.4,0.5 -0.5,1.2 -0.3,1.9 0.3,1.3 1.6,2 2.9,1.7 0.7,-0.2 1.3,-0.7 1.6,-1.3 l 5,-10 4.1,-1 -11.1,22 -10.6,2.6 c -0.2,0.1 -0.5,0.1 -0.7,0.3 -1.5,0.8 -2.1,2.6 -1.3,4.1 0.7,1.3 2.1,1.9 3.5,1.6 l 12.3,-3.1 c 2.6,-0.6 3.3,-2 3.3,-2 l 4.4,-8.3 8.7,5.1 0.3,13.4 c 0,0.3 0,0.5 0.1,0.8 0.4,1.6 2.1,2.6 3.7,2.2 1.4,-0.4 2.4,-1.7 2.3,-3.1 l -0.4,-16.3 c 0.1,-2.6 -1.5,-3.5 -1.5,-3.5 l -7.7,-4.6 4.8,-9.5 5.4,3.3 c 0,0 2.2,1.4 3.8,-1.3 l 5.3,-8.9 c 0.2,-0.5 0.3,-1.1 0.2,-1.6 -0.4,-1.5 -1.8,-2.3 -3.1,-1.9 z" />
      <path
         style="fill:#262626"
         inkscape:connector-curvature="0"
         d="m 180.2,122.7 c -2.8,2.1 -5.4,4.6 -7.4,7.4 l 47.1,47.1 c 2.8,-2.1 5.4,-4.6 7.4,-7.4 l -47.1,-47.1 z"
         id="path180" />
    </g>
  </g>
</svg>
