<svg width="25" height="25" xmlns="http://www.w3.org/2000/svg">
 <!-- Created with Method Draw - http://github.com/duopixel/Method-Draw/ -->
 <g>
  <title>background</title>
  <rect fill="none" id="canvas_background" height="27" width="27" y="-1" x="-1"/>
  <g display="none" overflow="visible" y="0" x="0" height="100%" width="100%" id="canvasGrid">   
  </g>
 </g>
 <g>
  <title>Layer 1</title>
  <ellipse ry="12" rx="12" id="svg_1" cy="12.5" cx="12.5" stroke-width="0.7" stroke="#000000" fill="#ff0000"/>
  <path stroke="#000000" transform="rotate(-12.240392684936523 13.511904716491712,10.91666698455811) " id="svg_2" d="m5.693623,11.415862c1.953063,0 3.789375,0.774669 5.168829,2.180002c1.382627,1.405976 2.142786,3.279325 2.142786,5.272893l3.010814,0c0,-5.791053 -4.631387,-10.501427 -10.323063,-10.501427l0,3.048532l0.000635,0zm0.003807,-5.405326c6.962627,0 12.625749,5.769838 12.625749,12.861435l3.009545,0c0,-8.772726 -7.014023,-15.91061 -15.635929,-15.91061l0,3.049175l0.000635,0zm4.162474,10.730292c0,1.166825 -0.933384,2.113143 -2.08441,2.113143s-2.08441,-0.946318 -2.08441,-2.113143c0,-1.165539 0.933384,-2.111857 2.08441,-2.111857s2.08441,0.945675 2.08441,2.111857z" stroke-width="0.3" fill="#000000"/>
 </g>
</svg>
