<?xml version="1.0" encoding="UTF-8" standalone="no"?>
<!-- Generator: Adobe Illustrator 18.0.0, SVG Export Plug-In . SVG Version: 6.00 Build 0)  -->

<svg
   xmlns:dc="http://purl.org/dc/elements/1.1/"
   xmlns:cc="http://creativecommons.org/ns#"
   xmlns:rdf="http://www.w3.org/1999/02/22-rdf-syntax-ns#"
   xmlns:svg="http://www.w3.org/2000/svg"
   xmlns="http://www.w3.org/2000/svg"
   xmlns:sodipodi="http://sodipodi.sourceforge.net/DTD/sodipodi-0.dtd"
   xmlns:inkscape="http://www.inkscape.org/namespaces/inkscape"
   version="1.1"
   id="Calque_1"
   x="0px"
   y="0px"
   viewBox="0 0 80 80"
   enable-background="new 0 0 80 80"
   xml:space="preserve"
   inkscape:version="0.48.4 r9939"
   width="100%"
   height="100%"
   sodipodi:docname="point_high_priority.svg"><metadata
     id="metadata19"><rdf:RDF><cc:Work
         rdf:about=""><dc:format>image/svg+xml</dc:format><dc:type
           rdf:resource="http://purl.org/dc/dcmitype/StillImage" /><dc:title /></cc:Work></rdf:RDF></metadata><defs
     id="defs17" /><sodipodi:namedview
     pagecolor="#ffffff"
     bordercolor="#666666"
     borderopacity="1"
     objecttolerance="10"
     gridtolerance="10"
     guidetolerance="10"
     inkscape:pageopacity="0"
     inkscape:pageshadow="2"
     inkscape:window-width="1920"
     inkscape:window-height="1027"
     id="namedview15"
     showgrid="false"
     inkscape:zoom="2.95"
     inkscape:cx="-18.813559"
     inkscape:cy="40"
     inkscape:window-x="0"
     inkscape:window-y="31"
     inkscape:window-maximized="1"
     inkscape:current-layer="Calque_1" /><polygon
     fill="#EF7F16"
     points="47.4,47.1 62.5,32 68.1,52.7 73.6,73.3 52.9,67.8 32.3,62.3 "
     id="polygon3" /><path
     style="fill:#ef7f16;fill-opacity:1"
     inkscape:connector-curvature="0"
     id="path7"
     d="M 37,66.6 C 20.5,66.6 7.1,53.2 7.1,36.7 7.1,20.2 20.5,6.8 37,6.8 53.5,6.8 66.9,20.2 66.9,36.7 66.9,53.2 53.5,66.6 37,66.6 z" /><path
     style="fill:#ef7f16"
     inkscape:connector-curvature="0"
     id="path9"
     d="m 37,10.3 c 14.6,0 26.4,11.8 26.4,26.4 C 63.4,51.3 51.6,63.1 37,63.1 22.4,63.1 10.6,51.3 10.6,36.7 10.6,22.1 22.5,10.3 37,10.3 m 0,-7 C 18.6,3.3 3.6,18.3 3.6,36.7 3.6,55.1 18.6,70.1 37,70.1 55.4,70.1 70.4,55.2 70.4,36.7 70.4,18.2 55.5,3.3 37,3.3 l 0,0 z" /></svg>