<?xml version="1.0" encoding="utf-8"?>
<!-- Generator: Adobe Illustrator 21.1.0, SVG Export Plug-In . SVG Version: 6.00 Build 0)  -->
<!DOCTYPE svg PUBLIC "-//W3C//DTD SVG 1.1//EN" "http://www.w3.org/Graphics/SVG/1.1/DTD/svg11.dtd">
<svg version="1.1"
	 id="Layer_1" inkscape:version="0.48.4 r9939" sodipodi:docname="robotdock.svg" xmlns:cc="http://creativecommons.org/ns#" xmlns:dc="http://purl.org/dc/elements/1.1/" xmlns:inkscape="http://www.inkscape.org/namespaces/inkscape" xmlns:rdf="http://www.w3.org/1999/02/22-rdf-syntax-ns#" xmlns:sodipodi="http://sodipodi.sourceforge.net/DTD/sodipodi-0.dtd" xmlns:svg="http://www.w3.org/2000/svg"
	 xmlns="http://www.w3.org/2000/svg" xmlns:xlink="http://www.w3.org/1999/xlink" x="0px" y="0px" viewBox="0 0 30 30"
	 style="enable-background:new 0 0 30 30;" xml:space="preserve">
<style type="text/css">
	.st0{display:none;}
	.st1{display:inline;fill:#EF7F16;}
	.st2{display:inline;}
	.st3{fill:#282828;}
	.st4{fill:#EF7F16;}
	.st5{fill:#FFFFFF;}
	.st6{fill:#F07F14;}
	.st7{display:inline;fill:#FF0000;}
	.st8{fill:#FF0000;}
	.st9{fill:none;}
	.st10{fill:#CAC8C8;stroke:#262626;stroke-width:4;stroke-linejoin:round;stroke-miterlimit:10;}
	.st11{fill:none;stroke:#262626;stroke-linejoin:round;stroke-miterlimit:10;}
	.st12{fill:#F07F15;stroke:#262626;stroke-width:3;stroke-linecap:round;stroke-linejoin:round;stroke-miterlimit:10;}
	.st13{opacity:0.8;fill:#262626;enable-background:new    ;}
	.st14{fill:#262626;}
	.st15{opacity:0.6;fill:#262626;enable-background:new    ;}
	.st16{opacity:0.2;fill:#262626;enable-background:new    ;}
	.st17{opacity:0.4;fill:#262626;enable-background:new    ;}
	.st18{fill:#262626;fill-opacity:0;}
	.st19{stroke:#FFFFFF;stroke-miterlimit:10;}
	.st20{display:inline;stroke:#FFFFFF;stroke-miterlimit:10;}
	.st21{fill:#262626;stroke:#FFFFFF;stroke-width:4;stroke-miterlimit:10;}
	.st22{display:inline;fill:#FFFFFF;stroke:#282828;stroke-width:4;stroke-miterlimit:10;}
	.st23{display:inline;fill:#282828;stroke:#FFFFFF;stroke-width:4;stroke-miterlimit:10;}
	.st24{display:inline;fill:#282828;}
	.st25{display:inline;fill:none;stroke:#282828;stroke-width:4;stroke-miterlimit:10;}
	
		.st26{display:inline;fill:#262626;stroke:#282828;stroke-width:3;stroke-linecap:round;stroke-linejoin:round;stroke-miterlimit:10;}
	.st27{display:inline;fill:#F07F14;}
	.st28{display:inline;fill:none;stroke:#F07F14;stroke-width:4;stroke-miterlimit:10;}
	
		.st29{display:inline;fill:#F07F14;stroke:#F07F14;stroke-width:3;stroke-linecap:round;stroke-linejoin:round;stroke-miterlimit:10;}
	.st30{fill:none;stroke:#262626;stroke-width:3;stroke-linecap:round;stroke-linejoin:round;stroke-miterlimit:10;}
</style>
<sodipodi:namedview  bordercolor="#666666" borderopacity="1" gridtolerance="10" guidetolerance="10" id="namedview3827" inkscape:current-layer="Layer_1" inkscape:cx="-29.69577" inkscape:cy="-6.9346294" inkscape:pageopacity="0" inkscape:pageshadow="2" inkscape:window-height="661" inkscape:window-maximized="0" inkscape:window-width="1364" inkscape:window-x="2085" inkscape:window-y="209" inkscape:zoom="3.5281344" objecttolerance="10" pagecolor="#ffffff" showgrid="false">
	</sodipodi:namedview>
<g id="ADMIN" transform="matrix(0.48882981,0,0,0.44092083,-82.602146,-53.027861)">
	<g id="ADMIN_-_Icône_Point_de_passage_Interface" class="st0">
		<polygon id="polygon7" class="st1" points="237.4,185.5 216.7,180 196,174.4 211.2,159.3 226.3,144.1 231.8,164.8 		"/>
		<g id="g9" class="st2">
			<path id="path11" inkscape:connector-curvature="0" class="st3" d="M200.8,178.8c-16.5,0-29.9-13.4-29.9-29.9
				s13.4-29.9,29.9-29.9s29.9,13.4,29.9,29.9S217.3,178.8,200.8,178.8z"/>
			<path id="path13" inkscape:connector-curvature="0" class="st4" d="M200.8,122.5c14.6,0,26.4,11.8,26.4,26.4
				c0,14.6-11.8,26.4-26.4,26.4c-14.6,0-26.4-11.8-26.4-26.4C174.4,134.3,186.2,122.5,200.8,122.5 M200.8,115.5
				c-18.4,0-33.4,14.9-33.4,33.4s14.9,33.4,33.4,33.4c18.4,0,33.4-14.9,33.4-33.4S219.2,115.5,200.8,115.5
				C200.8,115.5,200.8,115.5,200.8,115.5z"/>
		</g>
		<g id="g15" class="st2">
			<path id="path17" inkscape:connector-curvature="0" class="st5" d="M193.3,135.4h5.7c3.1,0,5.3,0.3,6.7,0.9
				c1.4,0.6,2.4,1.5,3.2,2.8s1.2,2.8,1.2,4.6c0,2-0.5,3.6-1.5,4.9c-1,1.3-2.4,2.2-4.2,2.7c-1,0.3-2.9,0.4-5.7,0.4v12h-5.4
				C193.3,163.7,193.3,135.4,193.3,135.4z M198.6,146.5h1.7c1.3,0,2.3-0.1,2.8-0.3s0.9-0.5,1.2-1c0.3-0.4,0.5-1,0.5-1.6
				c0-1.1-0.4-1.9-1.3-2.4c-0.6-0.4-1.8-0.6-3.4-0.6h-1.5C198.6,140.6,198.6,146.5,198.6,146.5z"/>
		</g>
	</g>
	<g id="ADMIN_-_Point_de_passage_Normal" class="st0">
		<polygon id="polygon20" class="st1" points="237.4,185.5 216.7,180 196,174.4 211.2,159.3 226.3,144.1 231.8,164.8 		"/>
		<g id="g22" class="st2">
			<path id="path24" inkscape:connector-curvature="0" class="st3" d="M200.8,178.8c-16.5,0-29.9-13.4-29.9-29.9
				s13.4-29.9,29.9-29.9s29.9,13.4,29.9,29.9S217.3,178.8,200.8,178.8z"/>
			<path id="path26" inkscape:connector-curvature="0" class="st4" d="M200.8,122.5c14.6,0,26.4,11.8,26.4,26.4
				c0,14.6-11.8,26.4-26.4,26.4c-14.6,0-26.4-11.8-26.4-26.4C174.4,134.3,186.2,122.5,200.8,122.5 M200.8,115.5
				c-18.4,0-33.4,14.9-33.4,33.4s14.9,33.4,33.4,33.4c18.4,0,33.4-14.9,33.4-33.4S219.2,115.5,200.8,115.5
				C200.8,115.5,200.8,115.5,200.8,115.5z"/>
		</g>
		<g id="g28" class="st2">
			<path id="path30" inkscape:connector-curvature="0" class="st5" d="M197.8,142.9h-4.9c0.3-2,1-3.6,2.1-4.8
				c1.6-1.7,3.7-2.5,6.1-2.5c2.2,0,4,0.7,5.5,2.1c1.5,1.4,2.2,3,2.2,5c0,1.2-0.3,2.3-1,3.3c-0.6,1-1.6,1.8-2.8,2.4
				c1.6,0.5,2.9,1.3,3.8,2.5c0.9,1.2,1.4,2.6,1.4,4.3c0,2.4-0.9,4.4-2.7,6.1c-1.8,1.7-4,2.5-6.8,2.5c-2.6,0-4.7-0.8-6.3-2.4
				c-1.6-1.6-2.5-3.7-2.7-6.4h5c0.2,1.4,0.7,2.4,1.4,3.1c0.7,0.7,1.7,1,2.8,1c1.2,0,2.2-0.4,3-1.1c0.8-0.8,1.2-1.7,1.2-2.8
				c0-1.2-0.5-2.2-1.6-3.1c-1.1-0.8-2.6-1.3-4.6-1.3v-4.4c1.2-0.1,2.1-0.3,2.7-0.6c0.6-0.3,1.1-0.7,1.4-1.2c0.3-0.5,0.5-1,0.5-1.6
				c0-0.7-0.3-1.3-0.8-1.8s-1.2-0.7-2-0.7c-0.7,0-1.4,0.2-2,0.7C198.5,141.6,198.1,142.2,197.8,142.9z"/>
		</g>
	</g>
	<g id="ADMIN_-_Point_de_passage_Priorité_Haute" class="st0">
		<polygon id="polygon33" class="st1" points="237.4,185.5 216.7,180 196,174.4 211.2,159.3 226.3,144.1 231.8,164.8 		"/>
		<g id="g35" class="st2">
			<path id="path37" inkscape:connector-curvature="0" class="st6" d="M200.8,178.8c-16.5,0-29.9-13.4-29.9-29.9
				s13.4-29.9,29.9-29.9s29.9,13.4,29.9,29.9S217.3,178.8,200.8,178.8z"/>
			<path id="path39" inkscape:connector-curvature="0" class="st6" d="M200.8,122.5c14.6,0,26.4,11.8,26.4,26.4
				c0,14.6-11.8,26.4-26.4,26.4c-14.6,0-26.4-11.8-26.4-26.4C174.4,134.3,186.2,122.5,200.8,122.5 M200.8,115.5
				c-18.4,0-33.4,14.9-33.4,33.4s14.9,33.4,33.4,33.4c18.4,0,33.4-14.9,33.4-33.4S219.2,115.5,200.8,115.5
				C200.8,115.5,200.8,115.5,200.8,115.5z"/>
		</g>
		<g id="g41" class="st2">
			<path id="path43" inkscape:connector-curvature="0" class="st5" d="M197.8,142.9h-4.9c0.3-2,1-3.6,2.1-4.8
				c1.6-1.7,3.7-2.5,6.1-2.5c2.2,0,4,0.7,5.5,2.1c1.5,1.4,2.2,3,2.2,5c0,1.2-0.3,2.3-1,3.3c-0.6,1-1.6,1.8-2.8,2.4
				c1.6,0.5,2.9,1.3,3.8,2.5c0.9,1.2,1.4,2.6,1.4,4.3c0,2.4-0.9,4.4-2.7,6.1c-1.8,1.7-4,2.5-6.8,2.5c-2.6,0-4.7-0.8-6.3-2.4
				c-1.6-1.6-2.5-3.7-2.7-6.4h5c0.2,1.4,0.7,2.4,1.4,3.1c0.7,0.7,1.7,1,2.8,1c1.2,0,2.2-0.4,3-1.1c0.8-0.8,1.2-1.7,1.2-2.8
				c0-1.2-0.5-2.2-1.6-3.1c-1.1-0.8-2.6-1.3-4.6-1.3v-4.4c1.2-0.1,2.1-0.3,2.7-0.6c0.6-0.3,1.1-0.7,1.4-1.2c0.3-0.5,0.5-1,0.5-1.6
				c0-0.7-0.3-1.3-0.8-1.8s-1.2-0.7-2-0.7c-0.7,0-1.4,0.2-2,0.7C198.5,141.6,198.1,142.2,197.8,142.9z"/>
		</g>
	</g>
	<g id="ADMIN_-_Point_de_passage_-_Incorrect" class="st0">
		<polygon id="polygon46" class="st7" points="237.4,185.5 216.7,180 196,174.4 211.2,159.3 226.3,144.1 231.8,164.8 		"/>
		<g id="g48" class="st2">
			<path id="path50" inkscape:connector-curvature="0" class="st8" d="M200.8,178.8c-16.5,0-29.9-13.4-29.9-29.9
				s13.4-29.9,29.9-29.9s29.9,13.4,29.9,29.9S217.3,178.8,200.8,178.8z"/>
			<path id="path52" inkscape:connector-curvature="0" class="st8" d="M200.8,122.5c14.6,0,26.4,11.8,26.4,26.4
				c0,14.6-11.8,26.4-26.4,26.4c-14.6,0-26.4-11.8-26.4-26.4C174.4,134.3,186.2,122.5,200.8,122.5 M200.8,115.5
				c-18.4,0-33.4,14.9-33.4,33.4s14.9,33.4,33.4,33.4c18.4,0,33.4-14.9,33.4-33.4S219.2,115.5,200.8,115.5
				C200.8,115.5,200.8,115.5,200.8,115.5z"/>
		</g>
		<g id="g54" class="st2">
			<path id="path56" inkscape:connector-curvature="0" class="st5" d="M197.8,142.9h-4.9c0.3-2,1-3.6,2.1-4.8
				c1.6-1.7,3.7-2.5,6.1-2.5c2.2,0,4,0.7,5.5,2.1c1.5,1.4,2.2,3,2.2,5c0,1.2-0.3,2.3-1,3.3c-0.6,1-1.6,1.8-2.8,2.4
				c1.6,0.5,2.9,1.3,3.8,2.5c0.9,1.2,1.4,2.6,1.4,4.3c0,2.4-0.9,4.4-2.7,6.1c-1.8,1.7-4,2.5-6.8,2.5c-2.6,0-4.7-0.8-6.3-2.4
				c-1.6-1.6-2.5-3.7-2.7-6.4h5c0.2,1.4,0.7,2.4,1.4,3.1c0.7,0.7,1.7,1,2.8,1c1.2,0,2.2-0.4,3-1.1c0.8-0.8,1.2-1.7,1.2-2.8
				c0-1.2-0.5-2.2-1.6-3.1c-1.1-0.8-2.6-1.3-4.6-1.3v-4.4c1.2-0.1,2.1-0.3,2.7-0.6c0.6-0.3,1.1-0.7,1.4-1.2c0.3-0.5,0.5-1,0.5-1.6
				c0-0.7-0.3-1.3-0.8-1.8s-1.2-0.7-2-0.7c-0.7,0-1.4,0.2-2,0.7C198.5,141.6,198.1,142.2,197.8,142.9z"/>
		</g>
	</g>
	<g id="ADMIN_-_Capteur_Porte">
		<polyline id="polyline59" class="st9" points="180.3,186.9 180.3,123.5 219.7,123.5 219.7,186.9 		"/>
		<polyline id="polyline61" class="st10" points="180.3,186.9 180.3,123.5 219.7,123.5 219.7,186.9 		"/>
		<line id="line65" class="st11" x1="230" y1="186.5" x2="170" y2="186.5"/>
	</g>
	<g id="ADMIN_-_Capteur_Base" class="st0">
		<g id="g68" class="st2">
			<g id="g70">
				<polygon id="polygon72" class="st12" points="230.5,169.5 230.5,162.3 230.5,136.8 230.5,130.5 153.5,130.5 153.5,169.5 				"/>
				<rect id="rect74" x="230.5" y="137.5" class="st12" width="15" height="25"/>
			</g>
		</g>
		<g id="g76" class="st2">
			<polygon id="polygon78" class="st13" points="170.2,166.7 185.3,166.7 172.3,133.3 157.2,133.3 			"/>
			<polygon id="polygon80" class="st14" points="157.2,166.7 170.2,166.7 157.2,133.3 			"/>
			<polygon id="polygon82" class="st15" points="185.3,166.7 200.4,166.7 187.4,133.3 172.3,133.3 			"/>
			<polygon id="polygon84" class="st16" points="227.1,157.7 217.6,133.3 202.5,133.3 215.6,166.7 227.1,166.7 			"/>
			<polygon id="polygon86" class="st17" points="200.4,166.7 215.6,166.7 202.5,133.3 187.4,133.3 			"/>
			<polygon id="polygon88" class="st18" points="227.1,133.3 217.6,133.3 227.1,157.7 			"/>
		</g>
	</g>
	<g id="ADMIN_-_Icône_e-vigilante" class="st0">
		<g id="Roues" class="st2">
			<g id="Roue_Gauche">
				<path id="path93" inkscape:connector-curvature="0" class="st19" d="M251.2,108.5c0-2.7,0-3,0-4c0-3.6-7.3-5.8-14.5-6.1
					c-15.1-0.7-21.7,0.8-24,1.3s-6.2,2.2-6.2,5.1c0,2.9,0,2.6,0,3.4c0,0.7,0.1,1.8,1.2,2.8c1.4-0.1,15.6-0.8,23.9-0.2
					c6,0.4,8.5,1.9,9.4,2.8C244.3,113.4,251.2,112.3,251.2,108.5z"/>
				<path id="path95" inkscape:connector-curvature="0" class="st19" d="M231.6,110.8c5.5,0.4,8.1,1.7,9.2,2.6
					c2.3-0.2,6.8-0.7,6.8-1.8c0-1.4-6.3-2.3-18.5-2.3c-9.9,0-14.7,0.8-15.7,1.4C218.6,110.6,226.2,110.4,231.6,110.8z"/>
			</g>
			<g id="Roue_Droite">
				<path id="path98" inkscape:connector-curvature="0" class="st19" d="M241,186.2c-1.1,1.1-4,2.9-11,3.3
					c-10,0.5-21.9-0.4-22.3-0.4l0,0c-0.3,0.3-1.2,1-1.2,2.5c0,1.9,0,2.8,0,3.8s0.6,2.4,2.4,3.5c2.6,1.6,8.7,3.1,21.4,3.1
					c12.7,0,21.1-2,21.1-6.5c0-1.7,0-2.5,0-3.4C251.4,191,250.6,186.7,241,186.2L241,186.2z"/>
				<path id="path100" inkscape:connector-curvature="0" class="st19" d="M214.2,189.4c1.4,0.5,6.7,1.3,14.3,1.3
					c10.1,0,18.2-0.8,18.8-2.1c0.6-1.4-4.1-1.9-6.6-2.1"/>
			</g>
		</g>
		<path id="path102" inkscape:connector-curvature="0" class="st20" d="M250.7,149.8c0,0-0.1-7.1-0.2-8.2
			c-1.4-4.6-5.1-15.1-5.1-15.1c-6.1-9.5-33-4-33.4-3.9c-0.4,0.1-1.1,0.3-1.1,0.3s-19.6,9.4-20.7,9.8c-1,0.4-1.2,1.4-1.2,1.4
			s-2.2,10.1-2.2,15.5s2,15.1,2.1,16.2c0.2,1.1,1,1.5,1,1.5s20.5,9.7,20.7,9.9c0.2,0.1,1.2,0.4,1.2,0.4s12.2,2.1,19.4,1.6
			c12.2-0.8,14.2-5.6,14.2-5.6l5.1-14.7c0.1-0.4,0.1-0.8,0.1-1.1C250.7,156.6,250.7,149.8,250.7,149.8z"/>
		<path id="path104" inkscape:connector-curvature="0" class="st20" d="M245.5,173.5c0,0-1.9,4.8-14.2,5.6
			c-7.2,0.4-19.4-1.6-19.4-1.6s-0.9-0.2-1.2-0.4c-0.2-0.1-20.7-9.9-20.7-9.9s-0.8-0.4-1-1.5s-2.1-10.7-2.1-16.2S189,134,189,134
			s0.1-1,1.2-1.4c1-0.4,20.7-9.8,20.7-9.8s0.7-0.2,1.1-0.3c0.4-0.1,27.4-5.6,33.4,3.9c0,0,3.8,10.5,5.1,15.1c0-0.1,0-0.1,0-0.1
			c0-0.1-0.1-0.4-0.1-0.6c0-0.1-6.3-20.1-8.8-26.5c0,0,0,0,0-0.1c-1.4-1-5.9-3.3-17.8-3c-15.4,0.4-16.4,0.5-16.4,0.5
			s-0.2,0.1-0.4,0.2l-31.5,19.2c0,0-0.9,0.4-1.4,0.6c-0.5,0.1-21.5,4.9-21.5,4.9s-3,0.6-3,3.5s0,20.2,0,20.2s0.1,2.4,2.8,3
			s21.7,5,21.7,5s0.8,0.2,1.5,0.6c0.7,0.4,31,18.9,31,18.9s0.5,0.3,0.8,0.3c0.4,0,14.9,0.6,17.9,0.6c2.9,0,13.4-0.2,16.3-3.4
			l8.6-25.1c0,0,0.2-0.7,0.3-1.4L245.5,173.5L245.5,173.5z"/>
		<path id="path106" inkscape:connector-curvature="0" class="st20" d="M243.9,172.7c0,0,2.2-9.3,4.3-21.6c0,0,0.1-1.6,0-2.1
			c-0.1-0.6-3.4-18.2-4.3-21.7c0,0-2.2-5.2-16.6-4.7c-5.8,0.2-14,1.3-14.9,1.5c0,0-0.4,0.1-0.9,0.3c-0.5,0.3-20.2,9.6-20.2,9.6
			s-0.8,0.4-0.9,1c-0.1,0.6-1.7,11.7-1.6,15.1c0.1,3.3,1.5,15.2,1.5,15.2s0,0.6,0.7,0.9c0.7,0.3,20.4,9.6,20.4,9.6s0.5,0.2,0.9,0.3
			C212.8,176,238.1,180.8,243.9,172.7z"/>
		<g id="Chapeau_Laser" class="st2">
			<path id="path109" inkscape:connector-curvature="0" class="st19" d="M243.2,150.1c0-1,0-10.8-11.9-10.8c-9.6,0-18.1,5.3-19.1,6
				c-0.6,0.4-3,2.2-3,4.7c0,2.7,2.9,4.7,4.3,5.5c2.7,1.4,11.4,5.3,17.9,5.3C239.2,160.8,243.2,154.9,243.2,150.1z"/>
			<path id="path111" inkscape:connector-curvature="0" class="st19" d="M238.9,150c0-3.2-1.5-9.3-8.8-9.3c-5,0-14.2,2.5-14.2,9.4
				c0.1,6.9,8.6,8.9,13.5,9.3C234.4,159.9,238.9,156.4,238.9,150z"/>
		</g>
	</g>
	<g id="ADMIN_-_Icône_Compte" class="st0">
		<g id="g114" class="st2">
			<path id="path116" inkscape:connector-curvature="0" class="st21" d="M154,188.5v-20.3c0-9.5,7.8-17.3,17.3-17.3h9.5
				c9.5,0,17.3,7.8,17.3,17.3v20.3H154z"/>
			
				<ellipse id="circle118" sodipodi:cx="176" sodipodi:cy="140.5" sodipodi:rx="21.200001" sodipodi:ry="21.200001" class="st21" cx="176" cy="140.5" rx="10.4" ry="9.3">
			</ellipse>
			<path id="path120" inkscape:connector-curvature="0" class="st21" d="M201.9,188.5v-20.3c0-9.5,7.8-17.3,17.3-17.3h9.5
				c9.5,0,17.3,7.8,17.3,17.3v20.3H201.9z"/>
			
				<ellipse id="circle122" sodipodi:cx="224" sodipodi:cy="140.5" sodipodi:rx="21.200001" sodipodi:ry="21.200001" class="st21" cx="224" cy="140.5" rx="10.4" ry="9.3">
			</ellipse>
			<path id="path124" inkscape:connector-curvature="0" class="st21" d="M175,188.5v-23c0-10.8,8.8-19.6,19.6-19.6h10.8
				c10.8,0,19.6,8.8,19.6,19.6v23C225,188.5,175,188.5,175,188.5z"/>
			
				<ellipse id="circle126" sodipodi:cx="200" sodipodi:cy="134.10001" sodipodi:rx="24" sodipodi:ry="24" class="st21" cx="200" cy="134.1" rx="11.7" ry="10.6">
			</ellipse>
		</g>
	</g>
	<g id="ADMIN_-_Icône_Réseau" class="st0">
		<path id="path129" inkscape:connector-curvature="0" class="st22" d="M190.4,195.9h19.2c1.8,0,3.2-1.4,3.2-3.2v-18.8
			c0-1.8-1.4-3.2-3.2-3.2h-19.2c-1.8,0-3.2,1.4-3.2,3.2v18.8C187.2,194.5,188.6,195.9,190.4,195.9z"/>
		<path id="path131" inkscape:connector-curvature="0" class="st22" d="M184,196.2h32c1.8,0,3.2-1.4,3.2-3.2l0,0
			c0-1.8-1.4-3.2-3.2-3.2h-32c-1.8,0-3.2,1.4-3.2,3.2l0,0C180.9,194.7,182.3,196.2,184,196.2z"/>
		<path id="path133" inkscape:connector-curvature="0" class="st22" d="M166.2,178.1h67.7c3.1,0,5.7-2.5,5.7-5.7v-44.8
			c0-3.1-2.5-5.7-5.7-5.7h-67.7c-3.1,0-5.7,2.5-5.7,5.7v44.8C160.5,175.5,163,178.1,166.2,178.1z"/>
		<g id="g135" class="st2">
			<path id="path137" inkscape:connector-curvature="0" class="st3" d="M158.6,194c-0.6,0-0.6-0.7-0.6-1.3V164h-8
				c-3.9,0-7-3.5-7-7.3v-36.6c0-3.9,3.2-7.1,7-7.1h26.3c3.9,0,6.7,3.2,6.7,7.1v36.6c0,3.9-2.8,7.3-6.7,7.3H169v28.7
				c0,0.6-0.7,1.3-1.2,1.3H158.6z"/>
			<path id="path139" inkscape:connector-curvature="0" class="st5" d="M176.3,114c3.3,0,5.7,2.7,5.7,6.1v36.6
				c0,3.3-2.4,6.3-5.7,6.3H168v30h-9v-30h-9c-3.3,0-6-3-6-6.3v-36.6c0-3.3,2.7-6.1,6-6.1h26 M176.3,112H150c-4.4,0-8,3.6-8,8.1v36.6
				c0,4.4,3.6,8.3,8,8.3h7v27.7c0,1.1,0.5,2.3,1.6,2.3h9.2c1.1,0,2.2-1.2,2.2-2.3V165h6.3c4.4,0,7.7-3.9,7.7-8.3v-36.6
				C184,115.6,180.7,112,176.3,112L176.3,112z"/>
		</g>
		<path id="path141" inkscape:connector-curvature="0" class="st23" d="M159.5,146h7.3c2.2,0,4-1.8,4-4v-31.5c0-2.2-1.8-4-4-4h-7.3
			c-2.2,0-4,1.8-4,4V142C155.5,144.2,157.3,146,159.5,146z"/>
	</g>
	<g id="ADMIN_-_Flèche_Capteurs_Nomal" class="st0">
		
			<ellipse id="circle144" sodipodi:cx="200" sodipodi:cy="156.2" sodipodi:rx="10" sodipodi:ry="10" class="st24" cx="200" cy="156.2" rx="4.9" ry="4.4">
		</ellipse>
		<line id="line146" class="st25" x1="200" y1="150" x2="200" y2="104"/>
		<polygon id="polygon148" class="st26" points="199.9,104.5 190.1,104.5 195,95.8 199.9,87.2 204.8,95.8 209.7,104.5 		"/>
	</g>
	<g id="ADMIN_-_Flèche_Capteurs_Survol_1_" class="st0">
		
			<ellipse id="circle151" sodipodi:cx="200" sodipodi:cy="156.2" sodipodi:rx="10" sodipodi:ry="10" class="st27" cx="200" cy="156.2" rx="4.9" ry="4.4">
		</ellipse>
		<line id="line153" class="st28" x1="200" y1="150" x2="200" y2="104"/>
		<polygon id="polygon155" class="st29" points="199.9,104.5 190.1,104.5 195,95.8 199.9,87.2 204.8,95.8 209.7,104.5 		"/>
	</g>
</g>
<line class="st30" x1="10.4" y1="7.4" x2="20.3" y2="7.4"/>
<line class="st30" x1="10.4" y1="11.9" x2="20.3" y2="11.9"/>
<line class="st30" x1="10.4" y1="16.4" x2="20.3" y2="16.4"/>
<line class="st30" x1="10.4" y1="20.9" x2="20.3" y2="20.9"/>
<line class="st30" x1="10.4" y1="25.4" x2="20.3" y2="25.4"/>
</svg>
