<?xml version="1.0" encoding="UTF-8" standalone="no"?>
<!-- Generator: Adobe Illustrator 15.0.2, SVG Export Plug-In . SVG Version: 6.00 Build 0)  -->

<svg
   xmlns:dc="http://purl.org/dc/elements/1.1/"
   xmlns:cc="http://creativecommons.org/ns#"
   xmlns:rdf="http://www.w3.org/1999/02/22-rdf-syntax-ns#"
   xmlns:svg="http://www.w3.org/2000/svg"
   xmlns="http://www.w3.org/2000/svg"
   xmlns:sodipodi="http://sodipodi.sourceforge.net/DTD/sodipodi-0.dtd"
   xmlns:inkscape="http://www.inkscape.org/namespaces/inkscape"
   version="1.1"
   id="Layer_1"
   x="0px"
   y="0px"
   width="30"
   height="30"
   viewBox="0 0 30 29.999999"
   enable-background="new 0 0 512 535.127"
   xml:space="preserve"
   inkscape:version="0.48.4 r9939"
   sodipodi:docname="radar.svg"><metadata
     id="metadata3831"><rdf:RDF><cc:Work
         rdf:about=""><dc:format>image/svg+xml</dc:format><dc:type
           rdf:resource="http://purl.org/dc/dcmitype/StillImage" /></cc:Work></rdf:RDF></metadata><defs
     id="defs3829" /><sodipodi:namedview
     pagecolor="#ffffff"
     bordercolor="#666666"
     borderopacity="1"
     objecttolerance="10"
     gridtolerance="10"
     guidetolerance="10"
     inkscape:pageopacity="0"
     inkscape:pageshadow="2"
     inkscape:window-width="1364"
     inkscape:window-height="661"
     id="namedview3827"
     showgrid="false"
     inkscape:zoom="7.0562687"
     inkscape:cx="-12.523424"
     inkscape:cy="4.7513147"
     inkscape:window-x="0"
     inkscape:window-y="31"
     inkscape:window-maximized="0"
     inkscape:current-layer="Layer_1" /><path
     d="m 18.558111,27.147716 c -1.54473,1.640204 -5.07721,1.768224 -8.6002753,0.331309 v 2.095807 H 4.6959517 V 23.903293 C 0.52217871,19.53788 -0.479322,13.235767 2.1876575,11.320998 l 6.6116444,6.392179 3.4220841,-2.363398 c -0.160943,-0.366121 -0.249866,-0.768655 -0.249866,-1.191627 0,-1.685716 1.413685,-3.052047 3.15702,-3.052047 1.743334,0 3.15702,1.366331 3.15702,3.052047 0,1.685769 -1.413686,3.051781 -3.15702,3.051781 -0.528033,0 -1.026168,-0.125465 -1.463626,-0.347013 l -2.393713,3.239687 7.28691,7.045109 z M 15.21939,6.1762853 c 4.649829,0 8.418244,3.6437616 8.418244,8.1387917 0,1.660644 -0.514047,3.204872 -1.396726,4.492475 0.224537,-0.782441 0.345285,-1.60635 0.345285,-2.457192 0,-5.057201 -4.240893,-9.1565661 -9.471336,-9.1565661 -0.880753,0 -1.732984,0.1160966 -2.542047,0.3334916 1.331866,-0.8537704 2.929179,-1.3510002 4.64658,-1.3510002 z m 1.474637,-5.0867449 c 6.741093,0 12.205821,5.5764691 12.205821,12.4552316 0,2.540658 -0.746458,4.90443 -2.026347,6.874132 0.325796,-1.196045 0.499732,-2.457245 0.499732,-3.759911 0,-7.7390807 -6.146876,-14.0126617 -13.730399,-14.0126617 -1.276418,0 -2.512533,0.1778978 -3.6850527,0.5104843 C 11.888433,1.8503697 14.20429,1.0895404 16.694027,1.0895404 z"
     id="path3825"
     style="fill:#f07f14;fill-opacity:1"
     inkscape:connector-curvature="0" /></svg>